<?xml version="1.0" encoding="UTF-8" standalone="no"?>
<svg
   version="1.1"
   width="64"
   height="64"
   viewBox="0 0 64 64"
   xml:space="preserve"
   id="svg8"
   sodipodi:docname="TPU.svg"
   inkscape:version="1.3.2 (091e20e, 2023-11-25, custom)"
   xmlns:inkscape="http://www.inkscape.org/namespaces/inkscape"
   xmlns:sodipodi="http://sodipodi.sourceforge.net/DTD/sodipodi-0.dtd"
   xmlns="http://www.w3.org/2000/svg"
   xmlns:svg="http://www.w3.org/2000/svg"><sodipodi:namedview
   id="namedview8"
   pagecolor="#002b36"
   bordercolor="#666666"
   borderopacity="1.0"
   inkscape:showpageshadow="2"
   inkscape:pageopacity="1"
   inkscape:pagecheckerboard="0"
   inkscape:deskcolor="#d1d1d1"
   inkscape:zoom="1.5170655"
   inkscape:cx="38.561288"
   inkscape:cy="-0.98875098"
   inkscape:window-width="2560"
   inkscape:window-height="1369"
   inkscape:window-x="-8"
   inkscape:window-y="658"
   inkscape:window-maximized="1"
   inkscape:current-layer="g6874"
   showgrid="false" />
<desc
   id="desc1">Created with Fabric.js 5.3.0</desc>
<defs
   id="defs1">
</defs>







<g
   id="g6874"
   transform="matrix(1.4222222,0,0,1.4222222,-13.51111,-13.51111)"><path
     style="fill:#94d1b0;stroke-width:1.30062;fill-opacity:1"
     d="m 29.654747,45.994014 c -0.05094,-0.105377 -0.110404,-1.361992 -0.136214,-2.878759 -0.02522,-1.480463 -0.08689,-3.162819 -0.137005,-3.738571 -0.05021,-0.575751 -0.129024,-2.106275 -0.175208,-3.401161 -0.04618,-1.294886 -0.124881,-2.607152 -0.174879,-2.916145 -0.04996,-0.308993 -0.09115,-0.843231 -0.09139,-1.187194 -4.02e-4,-0.523706 -0.04302,-0.677327 -0.261922,-0.944844 -0.274182,-0.335045 -0.343032,-0.846978 -0.156857,-1.16646 0.137956,-0.236746 0.824446,-0.231127 0.913524,0.0075 0.13703,0.366996 0.286477,1.241217 0.287757,1.68338 7.31e-4,0.247293 0.04411,0.684715 0.09651,0.972048 0.0524,0.287333 0.131351,1.599153 0.175561,2.915158 0.04424,1.316004 0.120762,2.863805 0.170212,3.439556 0.04935,0.575752 0.111257,2.039433 0.137444,3.252624 0.04643,2.150799 0.0524,2.205802 0.240025,2.205802 0.435936,0 0.543842,0.889291 0.187893,1.548396 -0.169066,0.313046 -0.294264,0.395702 -0.599348,0.395702 -0.212107,0 -0.426334,-0.08415 -0.476089,-0.18701 z m -7.233066,-0.299209 c -0.04972,-0.102919 -0.1115,-0.725404 -0.137078,-1.3833 -0.02559,-0.657895 -0.0892,-1.734538 -0.14121,-2.39254 -0.05203,-0.658003 -0.125514,-1.970268 -0.163253,-2.916146 -0.03778,-0.945878 -0.114791,-1.909221 -0.171114,-2.140765 -0.05642,-0.231542 -0.103092,-0.870851 -0.103823,-1.420687 -0.0012,-0.91104 -0.137201,-1.960193 -0.287538,-2.218198 -0.09602,-0.164849 -0.06873,-0.725059 0.04484,-0.920007 0.137323,-0.235655 0.63459,-0.230666 0.74525,0.0075 0.12064,0.259658 0.196204,0.994102 0.274145,2.665443 0.03668,0.78743 0.102726,1.527682 0.146766,1.645006 0.04399,0.117329 0.107236,0.987216 0.140661,1.933094 0.03339,0.945877 0.104677,2.224496 0.158465,2.841373 0.158416,1.816302 0.20036,4.025358 0.08116,4.271901 -0.127818,0.264272 -0.465097,0.279981 -0.587273,0.02735 z m 18.020973,-2.05051 c -0.16775,-0.149556 -0.511562,-0.666233 -0.764016,-1.148171 l -0.459016,-0.876251 0.04362,-4.112513 c 0.08128,-7.674678 0.129012,-9.378071 0.268259,-9.576388 0.06983,-0.09939 0.126892,-0.360907 0.126892,-0.581137 0,-0.22023 0.04704,-0.481173 0.104554,-0.579872 0.134422,-0.230676 0.440738,-0.230676 0.57516,0 0.145377,0.249491 0.125953,1.479219 -0.02888,1.83061 -0.100655,0.22841 -0.127951,0.824232 -0.127951,2.79516 0,1.508601 -0.03461,2.541634 -0.08713,2.597298 -0.135909,0.144137 -0.114791,6.529206 0.02315,6.985306 0.143988,0.476273 0.702892,1.314493 0.876479,1.314493 0.0747,0 0.160086,0.0673 0.189709,0.149545 0.07641,0.212187 1.586999,0.181609 2.004328,-0.04058 0.425164,-0.226349 0.827882,-0.676549 0.827882,-0.925499 0,-0.10117 0.07555,-0.301207 0.167786,-0.444532 0.09225,-0.143324 0.271269,-0.623515 0.397734,-1.067091 0.126465,-0.443577 0.266639,-0.84543 0.311507,-0.893009 0.04484,-0.04757 0.08152,-0.215079 0.08152,-0.372223 0,-0.157144 0.07848,-0.525347 0.174294,-0.818226 0.123894,-0.378533 0.174282,-0.809707 0.174282,-1.491181 0,-0.527272 0.03924,-1.000266 0.08713,-1.0511 0.04789,-0.05083 0.08713,-0.353664 0.08713,-0.672956 0,-0.319293 0.03924,-0.622123 0.08713,-0.672957 0.04789,-0.05083 0.08713,-0.344177 0.08713,-0.651874 0,-0.307696 0.0418,-0.631257 0.09298,-0.719023 0.05118,-0.08776 0.115766,-0.675369 0.143513,-1.305785 0.02778,-0.630417 0.08396,-1.1817 0.124868,-1.225075 0.04095,-0.04337 0.07433,-0.407397 0.07433,-0.80894 0,-0.401543 0.03924,-0.77167 0.08713,-0.822502 0.04789,-0.05083 0.08713,-0.276881 0.08713,-0.502327 0,-0.494007 0.142587,-0.768814 0.398904,-0.768814 0.491126,0 0.490517,0.737084 -0.0037,5.009789 -0.07616,0.658002 -0.179095,1.499198 -0.228704,1.869324 -0.0496,0.370126 -0.111256,0.942139 -0.137078,1.27114 -0.02583,0.329002 -0.08201,0.662115 -0.125076,0.740253 -0.04302,0.07814 -0.07823,0.535064 -0.07823,1.015392 0,0.578204 -0.05886,1.07144 -0.174282,1.459593 -0.0959,0.322447 -0.174294,0.7031 -0.174294,0.845893 0,0.142794 -0.09152,0.498776 -0.203491,0.791075 -0.111866,0.292296 -0.357021,0.956774 -0.544659,1.476617 -0.564704,1.564501 -0.776421,1.927169 -1.191897,2.041791 -0.203114,0.05603 -0.977122,0.125449 -1.720032,0.154266 -1.174288,0.04555 -1.390587,0.01687 -1.655751,-0.219528 z m -9.655635,-8.410033 c -0.05752,-0.0987 -0.104555,-0.320776 -0.104555,-0.493502 0,-0.525339 0.174745,-0.672956 0.796589,-0.672956 0.323095,0 0.61168,-0.0673 0.641304,-0.149547 0.02961,-0.08225 0.123894,-0.149545 0.209499,-0.149545 0.08567,0 0.22662,-0.134598 0.313371,-0.299092 0.08676,-0.1645 0.266285,-0.299092 0.398977,-0.299092 0.132679,0 0.357752,-0.16824 0.500156,-0.373865 0.142391,-0.205626 0.295433,-0.373864 0.34007,-0.373864 0.108454,0 0.460113,-0.650571 0.460113,-0.851217 0,-0.08744 0.05959,-0.243789 0.132326,-0.347441 0.247409,-0.352349 0.413441,-1.140327 0.310105,-1.471673 -0.05167,-0.165509 -0.09383,-0.513884 -0.09383,-0.774168 0,-0.336578 -0.07811,-0.598537 -0.270659,-0.907107 -0.253576,-0.406505 -0.316174,-0.433864 -0.992647,-0.433864 -0.533191,0 -0.821326,0.07735 -1.10188,0.295807 -0.208927,0.162694 -0.556345,0.298783 -0.772022,0.302417 -0.252101,0.0043 -0.469959,0.111054 -0.610024,0.299051 -0.119786,0.160843 -0.301295,0.293938 -0.403266,0.295766 -0.101995,0.0018 -0.234224,0.104266 -0.293886,0.227644 -0.130315,0.269457 -0.447707,0.293487 -0.592585,0.04487 -0.277642,-0.476452 0.05898,-1.615096 0.477514,-1.615096 0.09834,0 0.272232,-0.125894 0.386535,-0.279768 0.140247,-0.188795 0.397503,-0.300337 0.79113,-0.343026 0.385743,-0.04184 0.63894,-0.149676 0.747589,-0.318416 0.138139,-0.214533 0.355522,-0.255158 1.365363,-0.255158 h 1.201073 l 0.426029,0.61211 c 0.374337,0.53783 0.426029,0.681936 0.426029,1.187541 0,0.316489 0.03924,0.617025 0.08713,0.667857 0.04789,0.05083 0.08713,0.528555 0.08713,1.061605 0,1.085999 -0.16758,1.800948 -0.672659,2.869693 -0.316283,0.669261 -1.271909,1.817654 -1.517076,1.823081 -0.07799,0.0017 -0.192524,0.107973 -0.254489,0.236098 -0.220064,0.455011 -0.697091,0.664317 -1.514079,0.664317 -0.505871,0 -0.838228,-0.06595 -0.904372,-0.179456 z M 16.151066,32.552528 c -0.05995,-0.104252 -0.108941,-0.336088 -0.108941,-0.515193 0,-0.637389 -0.0959,-0.609306 3.180773,-0.931612 0.690779,-0.06795 1.217902,-0.192752 1.350752,-0.319811 0.119786,-0.114607 0.472762,-0.257249 0.784293,-0.316985 0.311543,-0.05973 1.233097,-0.35813 2.047904,-0.663099 1.856878,-0.695005 2.10525,-0.752094 2.267407,-0.52116 0.178998,0.25493 0.161536,0.947711 -0.03144,1.247399 -0.09249,0.143715 -0.28627,0.239676 -0.457518,0.226618 -0.163351,-0.01249 -0.885228,0.19727 -1.604168,0.46606 -0.718941,0.268789 -1.562067,0.535957 -1.87361,0.593707 -0.311544,0.05775 -0.664482,0.198767 -0.784306,0.313373 -0.211314,0.202114 -1.200208,0.347259 -3.616502,0.530812 -0.780064,0.05926 -1.073414,0.03128 -1.154669,-0.11011 z"
     id="path1" /></g>
</svg>
